# xmcd
#
# Track frame offsets: 
#        150
#        13266
#        28336
#        43487
#        58519
#        74656
#        91371
#        113237
#        132485
#        150077
#        164921
#        188886
#
# Disc length: 2785 seconds
#
# Revision: 0
# Processed by: cddbd v1.5.1PL0 Copyright (c) Steve Scherf et al.
# Submitted via: ExactAudioCopy v0.95b3
#
DISCID=b20adf0c
DTITLE=Marlango - Automatic Imperfection
DYEAR=2005
DGENRE=Cabaret
TTITLE0=Shake the Moon
TTITLE1=Days are Tired
TTITLE2=Twisted and Sick
TTITLE3=Cry
TTITLE4=I Don´t Care
TTITLE5=Automatic Imperfection
TTITLE6=Beautiful Mess
TTITLE7=Pequeño Vals
TTITLE8=Architecture of Lies
TTITLE9=Tip_Toe
TTITLE10=Trains
TTITLE11=Wrong Way
EXTD=
EXTT0=
EXTT1=
EXTT2=
EXTT3=
EXTT4=
EXTT5=
EXTT6=
EXTT7=
EXTT8=
EXTT9=
EXTT10=
EXTT11=
PLAYORDER=
